     1|<svg xmlns="http://www.w3.org/2000/svg"
     2|shape-rendering="geometricPrecision"
     3|width="4000" height="4000" viewBox="0 0 1024 1024">
     4|  <metadata>null</metadata>
     5|
     6|<path d="
     7|M 152.475 638.61
     8|C 153.385 632.353 153.526 626.223 155.046 620.014
     9|C 158.214 607.078 165.059 594.803 174.693 585.577
    10|C 196.442 564.751 233.591 560.417 258.703 577.807
    11|C 262.936 580.738 266.807 584.015 270.251 587.852
    12|C 271.426 589.16 272.984 590.462 273.857 591.988
    13|C 266.884 597.889 259.854 603.825 253.024 609.915
    14|C 252.348 609.516 251.871 608.364 251.38 607.732
    15|C 250.199 606.209 248.854 604.803 247.426 603.51
    16|C 241.946 598.551 234.943 595.017 227.561 594.156
    17|C 223.312 593.661 218.819 593.617 214.614 594.523
    18|C 211.514 595.192 208.374 596.189 205.56 597.668
    19|C 184.898 608.526 178.79 635.562 184.546 656.86
    20|C 186.233 663.105 188.511 669 192.404 674.237
    21|C 199.276 683.481 211.106 688.708 222.592 687.968
    22|C 227.75 687.636 232.595 686.632 237.338 684.527
    23|C 243.902 681.614 249.2 676.816 253.866 671.451
    24|C 259.279 675.298 264.224 680.065 269.292 684.369
    25|C 270.62 685.497 271.954 686.626 273.336 687.685
    26|C 273.701 687.964 274.7 688.47 274.821 688.903
    27|C 272.345 691.576 270.166 694.491 267.52 697.023
    28|C 261.165 703.102 253.381 708.089 245.076 711.024
    29|C 218.853 720.289 186.219 713.232 168.46 691.217
    30|C 156.728 676.672 151.497 657.147 152.475 638.61 Z"
    31|opacity="1" fill="#c084fc" fill-rule="evenodd" />
    32|<path d="
    33|M 280.369 693.594
    34|C 283.76 689.644 287.336 685.85 290.745 681.916
    35|C 293.066 679.237 295.329 676.117 298.034 673.827
    36|C 302.023 676.851 305.732 679.901 310.189 682.273
    37|C 319.757 687.364 330.982 689.794 341.766 688.823
    38|C 350.064 688.075 359.416 682.513 359.184 673.199
    39|C 358.892 661.41 345.353 657.544 336.068 654.772
    40|C 334.009 654.157 331.962 653.509 329.903 652.899
    41|C 313.32 647.984 293.399 641.771 287.049 623.748
    42|C 285.642 619.755 284.946 615.489 284.723 611.273
    43|C 284.492 606.904 284.866 602.441 285.997 598.21
    44|C 292.839 572.633 323.313 564.43 346.68 567.901
    45|C 351.444 568.608 356.022 569.742 360.591 571.247
    46|C 367.091 573.387 372.999 576.703 378.575 580.618
    47|C 380.758 582.151 383.862 584.089 385.376 586.314
    48|C 379.163 592.177 373.293 599.124 368.019 605.837
    49|C 366.868 605.366 365.965 604.113 364.942 603.388
    50|C 362.655 601.768 360.265 600.304 357.802 598.969
    51|C 349.12 594.264 338.232 591.759 328.395 593.301
    52|C 319.278 594.729 311.141 603.243 315.662 612.703
    53|C 316.336 614.114 317.262 615.473 318.373 616.577
    54|C 323.805 621.983 333.318 623.932 340.432 626.034
    55|C 358.626 631.411 380.735 637.438 386.732 658.023
    56|C 388.117 662.776 388.788 667.687 388.662 672.639
    57|C 388.564 676.507 387.913 680.357 386.811 684.062
    58|C 380.696 704.604 360.234 713.365 340.473 715.09
    59|C 324.295 716.502 307.535 712.153 293.63 703.943
    60|C 288.821 701.104 284.804 697.372 280.344 694.082
    61|C 280.352 693.919 280.361 693.756 280.369 693.594 Z"
    62|opacity="1" fill="#c084fc" fill-rule="evenodd" />
    63|<path d="
    64|M 282.785 388.927
    65|C 288.804 386.189 294.381 382.213 300.185 379.031
    66|C 301.911 378.084 304.142 376.098 306.042 375.746
    67|C 311.114 379.877 316.57 383.567 321.768 387.552
    68|C 324.391 389.562 327.491 391.531 329.511 394.189
    69|C 330.607 395.63 330.674 397.47 331.546 399.005
    70|C 334.022 400.989 337.275 402.434 340.033 404.019
    71|C 345.216 406.998 350.334 410.099 355.484 413.137
    72|C 372.518 423.188 389.201 433.812 406.181 443.946
    73|C 412.394 447.653 418.539 451.471 424.713 455.243
    74|C 427.746 457.096 431.215 458.743 433.976 460.977
    75|C 430.784 469.126 425.741 476.866 421.947 484.804
    76|C 420.925 486.941 419.791 489.024 418.778 491.165
    77|C 418.43 491.901 418.118 493.478 417.475 493.927
    78|C 413.883 491.126 409.533 488.98 405.637 486.612
    79|C 399.44 482.846 393.254 479.056 387.086 475.244
    80|C 364.583 461.335 341.898 447.721 319.447 433.728
    81|C 311.607 428.842 303.71 424.048 295.868 419.167
    82|C 293.155 417.478 290.17 416.1 287.571 414.248
    83|C 286.956 413.436 287.054 412.382 286.925 411.411
    84|C 286.703 409.732 286.332 408.091 286.066 406.42
    85|C 285.137 400.585 283.496 394.779 282.785 388.927 Z"
    86|opacity="1" fill="#a855f7" fill-rule="evenodd" />
    87|<path d="
    88|M 315.336 368.431
    89|C 323.703 362.473 332.895 357.382 341.639 351.985
    90|C 356.817 342.619 371.86 333.001 387.223 323.938
    91|C 396.057 318.727 404.81 313.31 413.496 307.857
    92|C 417.626 305.264 422.015 301.836 426.581 300.108
    93|C 430.997 308.129 436.233 315.726 440.879 323.619
    94|C 442.028 325.571 443.151 327.556 444.356 329.474
    95|C 444.614 329.886 445.511 330.746 445.275 331.22
    96|C 441.769 332.679 438.413 335.292 435.217 337.334
    97|C 429.768 340.816 424.172 344.068 418.71 347.529
    98|C 401.759 358.268 384.657 368.861 367.45 379.181
    99|C 361.739 382.606 356.165 386.261 350.444 389.67
   100|C 347.975 391.142 345.36 393.417 342.653 394.377
   101|C 336.137 388.413 329.619 382.365 323.153 376.331
   102|C 320.521 373.876 317.93 371.119 315.089 368.925
   103|C 315.171 368.761 315.254 368.596 315.336 368.431 Z"
   104|opacity="1" fill="#a855f7" fill-rule="evenodd" />
   105|<path d="
   106|M 405.747 566.263
   107|C 414.865 566.209 424.127 566.686 433.228 566.159
   108|C 433.623 570.373 433.275 574.768 433.273 579.001
   109|C 433.268 587.168 433.281 595.335 433.276 603.502
   110|C 433.261 628.001 433.3 652.5 433.282 676.999
   111|C 433.276 685.834 433.281 694.668 433.26 703.503
   112|C 433.255 705.646 433.225 707.793 433.283 709.936
   113|C 433.293 710.301 433.467 711.76 433.167 711.962
   114|C 424.122 711.528 414.92 711.919 405.871 712.046
   115|C 405.051 663.467 406.281 614.847 405.747 566.263 Z"
   116|opacity="1" fill="#a855f7" fill-rule="evenodd" />
   117|<path d="
   118|M 434.355 526.008
   119|C 457.952 472.69 481.756 419.472 505.644 366.28
   120|C 514.995 345.456 524.543 324.698 533.686 303.785
   121|C 538.145 293.587 542.535 283.241 547.451 273.257
   122|C 551.448 272.391 556.406 273.174 560.51 273.155
   123|C 568.879 273.116 577.472 272.614 585.815 273.139
   124|C 584.942 276.147 583.129 279.117 581.889 282.01
   125|C 578.816 289.183 575.527 296.261 572.431 303.425
   126|C 561.792 328.039 550.548 352.375 539.779 376.938
   127|C 525.758 408.919 511.222 440.668 496.968 472.54
   128|C 492.279 483.024 487.605 493.527 482.975 504.042
   129|C 479.615 511.671 476.775 519.864 472.691 527.142
   130|C 471.427 527.424 469.808 527.149 468.508 527.133
   131|C 465.674 527.097 462.84 527.107 460.007 527.101
   132|C 451.389 527.084 442.762 527.252 434.148 527.187
   133|C 434.19 526.38 434.119 526.773 434.355 526.008 Z"
   134|opacity="1" fill="#a855f7" fill-rule="evenodd" />
   135|<path d="
   136|M 451.988 651.102
   137|C 453.962 639.954 456.842 629.012 464.523 620.252
   138|C 470.485 613.454 478.01 608.203 486.583 605.271
   139|C 502.934 599.68 523.181 602.72 535.898 614.683
   140|C 546.001 624.185 550.946 638.204 552.14 651.786
   141|C 552.584 656.825 552.173 661.886 552.328 666.926
   142|C 535.889 667.029 519.438 666.788 502.997 666.752
   143|C 497.997 666.741 492.997 666.741 487.997 666.744
   144|C 485.206 666.745 482.095 666.399 479.365 667.021
   145|C 480.615 672.278 481.731 676.884 484.932 681.416
   146|C 486.509 683.648 488.645 685.489 490.865 687.055
   147|C 499.732 693.308 511.514 693.237 521.155 688.776
   148|C 525.033 686.981 528.109 684.575 531.508 682.072
   149|C 537.03 687.33 543.846 691.464 549.078 696.995
   150|C 548.657 697.991 547.483 698.607 546.657 699.26
   151|C 545.088 700.499 543.616 701.847 542.03 703.071
   152|C 532.867 710.139 521.569 713.743 510.109 714.63
   153|C 503.508 715.141 496.957 714.325 490.518 712.935
   154|C 486.901 712.155 483.344 710.703 480.013 709.12
   155|C 458.384 698.836 449.292 673.833 451.988 651.102 Z
   156|M 479.955 646.606
   157|C 479.899 647.097 479.774 647.487 479.983 647.943
   158|C 484.358 647.399 489.089 647.879 493.505 647.865
   159|C 503.979 647.83 514.495 648.053 524.96 647.808
   160|C 525.196 645.312 524.224 642.328 523.392 640.009
   161|C 519.412 628.921 508.804 622.084 496.998 625.349
   162|C 487.486 627.98 481.621 637.334 479.955 646.606 Z"
   163|opacity="1" fill="#a855f7" fill-rule="evenodd" />
   164|<path d="
   165|M 563.936 677.609
   166|C 564.5 674.006 565.358 670.648 566.995 667.361
   167|C 576.229 648.818 601.129 647.983 619.005 647.447
   168|C 622.412 647.345 625.889 647.569 629.283 647.316
   169|C 628.711 642.012 629.454 636.948 626.216 632.241
   170|C 623.238 627.91 617.755 626.107 612.748 625.68
   171|C 602.452 624.803 592.246 628.277 584.098 634.453
   172|C 582.031 633.037 580.337 629.914 578.801 627.926
   173|C 575.947 624.23 572.747 620.705 569.562 617.303
   174|C 570.893 615.701 572.916 614.566 574.65 613.442
   175|C 578.854 610.717 583.493 608.569 588.242 606.973
   176|C 591.878 605.751 595.574 604.78 599.367 604.181
   177|C 618.039 601.23 642.839 602.581 652.398 621.755
   178|C 657.79 632.572 656.746 645.293 656.743 657.004
   179|C 656.738 675.254 657.303 693.604 656.742 711.841
   180|C 648.204 711.673 639.437 711.439 630.917 711.989
   181|C 629.613 707.888 631.19 702.771 630.669 698.523
   182|C 628.492 700.599 626.605 702.968 624.31 704.937
   183|C 619.21 709.314 613.399 712.387 606.8 713.786
   184|C 589.23 717.51 569.42 708.871 564.811 690.501
   185|C 563.755 686.294 563.486 681.917 563.936 677.609 Z
   186|M 590.965 678.612
   187|C 590.78 680.088 590.978 681.546 591.284 682.993
   188|C 593.954 695.619 611.368 693.912 619.695 688.906
   189|C 624.744 685.872 628.73 681.171 629.27 675.104
   190|C 629.573 671.708 628.776 667.733 629.479 664.455
   191|C 626.977 664.439 624.489 664.552 621.989 664.623
   192|C 615.329 664.81 608.806 665.128 602.376 667.043
   193|C 598.771 668.116 594.975 670.193 592.878 673.421
   194|C 591.796 675.085 591.449 676.727 590.965 678.612 Z"
   195|opacity="1" fill="#a855f7" fill-rule="evenodd" />
   196|<path d="
   197|M 570.734 466.011
   198|C 577.602 462.103 584.259 457.716 590.978 453.551
   199|C 607.505 443.305 624.089 433.139 640.716 423.053
   200|C 647.579 418.89 654.409 414.677 661.285 410.535
   201|C 664.397 408.661 667.692 405.993 671.066 404.686
   202|C 677.833 411.053 684.776 417.227 691.927 423.161
   203|C 693.753 424.677 695.498 426.236 697.246 427.839
   204|C 697.525 428.096 698.857 428.975 698.822 429.355
   205|C 675.892 444.647 652.118 458.856 628.668 473.348
   206|C 615.296 481.611 601.403 489.37 588.509 498.356
   207|C 588 498.09 587.622 496.85 587.317 496.33
   208|C 586.257 494.525 585.391 492.608 584.352 490.79
   209|C 581.007 484.936 577.819 478.996 574.533 473.109
   210|C 573.618 471.471 572.686 469.842 571.762 468.211
   211|C 571.371 467.521 570.727 466.793 570.734 466.011 Z"
   212|opacity="1" fill="#c084fc" fill-rule="evenodd" />
   213|<path d="
   214|M 585.272 339.682
   215|C 586.743 336.28 588.849 332.963 590.663 329.724
   216|C 594.763 322.403 599.024 315.012 602.685 307.464
   217|C 612.929 312.638 622.465 319.683 632.234 325.713
   218|C 651.36 337.517 670.35 349.544 689.413 361.45
   219|C 701.232 368.832 712.891 376.525 725.011 383.415
   220|C 725.993 384.744 726.018 387.572 726.303 389.209
   221|C 727.078 393.666 728.02 398.092 728.925 402.524
   222|C 729.233 404.028 729.597 405.523 729.965 407.013
   223|C 730.077 407.467 730.46 408.145 730.284 408.596
   224|C 724.415 411.441 718.974 415.26 713.373 418.588
   225|C 711.514 419.693 709.518 421.55 707.542 422.317
   226|C 704.019 420.386 700.716 417.374 697.444 415.016
   227|C 691.591 410.798 683.647 406.763 681.587 399.446
   228|C 681.013 398.607 679.829 398.132 678.955 397.659
   229|C 676.945 396.573 675.017 395.333 673.047 394.177
   230|C 666.534 390.352 660.171 386.24 653.739 382.278
   231|C 638.226 372.722 622.88 362.883 607.439 353.21
   232|C 600.121 348.625 592.45 344.458 585.272 339.682 Z"
   233|opacity="1" fill="#c084fc" fill-rule="evenodd" />
   234|<path d="
   235|M 679.859 604.929
   236|C 686.072 604.774 692.291 604.758 698.508 604.772
   237|C 700.654 604.777 704.434 604.088 706.38 604.961
   238|C 706.424 610.545 705.824 616.503 706.567 622.042
   239|C 707.541 621.553 708.249 619.196 708.8 618.251
   240|C 710.531 615.278 712.801 612.373 715.371 610.078
   241|C 722.048 604.117 731.047 601.482 739.894 603.008
   242|C 743.332 603.601 746.456 604.995 749.811 605.783
   243|C 749.828 606.605 749.116 607.56 748.784 608.279
   244|C 748.006 609.968 747.455 611.776 746.862 613.539
   245|C 744.881 619.428 743.516 625.401 742.338 631.478
   246|C 738.542 630.054 735.184 628.414 731.01 628.332
   247|C 719.687 628.109 711.049 636.99 708.418 647.473
   248|C 706.401 655.511 707.282 664.281 707.297 672.503
   249|C 707.321 685.606 707.067 698.733 707.224 711.828
   250|C 698.192 712.1 688.905 711.091 679.915 711.988
   251|C 678.823 710.301 679.628 706.021 679.636 704.001
   252|C 679.667 697.169 679.685 690.337 679.685 683.505
   253|C 679.685 657.406 679.466 631.304 679.595 605.206
   254|C 679.683 605.114 679.771 605.021 679.859 604.929 Z"
   255|opacity="1" fill="#a855f7" fill-rule="evenodd" />
   256|<path d="
   257|M 761.324 604.97
   258|C 769.98 605.022 778.829 604.206 787.468 604.903
   259|C 787.327 610.081 787.708 615.292 787.53 620.464
   260|C 789.635 619.257 791.194 616.176 792.933 614.443
   261|C 797.257 610.133 802.504 606.542 808.312 604.589
   262|C 812.824 603.071 817.661 602.419 822.418 602.576
   263|C 826.377 602.706 830.367 603.328 834.118 604.616
   264|C 836.572 605.459 838.959 606.729 841.103 608.182
   265|C 855.406 617.868 855.442 635.606 855.492 651.012
   266|C 855.506 655.274 855.566 659.527 855.574 663.783
   267|C 855.598 675.741 855.597 687.697 855.576 699.654
   268|C 855.571 702.627 855.607 705.597 855.605 708.567
   269|C 855.605 709.253 856 711.218 855.397 711.709
   270|C 849.62 711.944 843.779 711.713 837.995 711.713
   271|C 834.905 711.713 831.343 712.212 828.307 711.744
   272|C 827.739 695.034 828.203 678.226 828.182 661.505
   273|C 828.173 653.597 829.519 644.262 826.686 636.725
   274|C 823.653 628.656 814.991 625.824 807.032 627.382
   275|C 799.794 628.8 793.38 633.901 790.332 640.583
   276|C 787.64 646.485 788.605 653.29 788.621 659.6
   277|C 788.65 671.233 788.657 682.866 788.657 694.499
   278|C 788.657 698.499 788.635 702.497 788.602 706.496
   279|C 788.591 707.805 789.002 710.562 788.399 711.701
   280|C 779.506 711.658 770.519 711.39 761.634 711.775
   281|C 760.722 707.146 761.437 701.716 761.419 696.997
   282|C 761.381 687.165 761.344 677.334 761.349 667.503
   283|C 761.356 653.502 761.355 639.502 761.345 625.501
   284|C 761.341 621.029 761.358 616.556 761.331 612.084
   285|C 761.317 609.769 761.024 607.261 761.324 604.97 Z"
   286|opacity="1" fill="#a855f7" fill-rule="evenodd" />
   287|
   288|</svg>